G04 EAGLE Gerber RS-274X export*
G75*
%MOMM*%
%FSLAX34Y34*%
%LPD*%
%INBottom Copper*%
%IPPOS*%
%AMOC8*
5,1,8,0,0,1.08239X$1,22.5*%
G01*
%ADD10C,1.524000*%
%ADD11C,0.756400*%
%ADD12C,0.304800*%
%ADD13C,0.406400*%

G36*
X757726Y10162D02*
X757726Y10162D01*
X757735Y10161D01*
X757927Y10182D01*
X758118Y10201D01*
X758126Y10203D01*
X758135Y10204D01*
X758317Y10262D01*
X758503Y10319D01*
X758510Y10323D01*
X758519Y10326D01*
X758687Y10419D01*
X758857Y10511D01*
X758863Y10516D01*
X758871Y10521D01*
X759018Y10645D01*
X759166Y10768D01*
X759171Y10775D01*
X759178Y10781D01*
X759297Y10932D01*
X759418Y11082D01*
X759422Y11090D01*
X759428Y11097D01*
X759516Y11270D01*
X759604Y11439D01*
X759606Y11448D01*
X759610Y11456D01*
X759662Y11642D01*
X759715Y11826D01*
X759716Y11835D01*
X759718Y11844D01*
X759732Y12037D01*
X759748Y12228D01*
X759747Y12236D01*
X759748Y12245D01*
X759723Y12438D01*
X759701Y12627D01*
X759698Y12636D01*
X759697Y12645D01*
X759636Y12828D01*
X759576Y13010D01*
X759572Y13018D01*
X759569Y13026D01*
X759473Y13193D01*
X759378Y13361D01*
X759372Y13368D01*
X759368Y13375D01*
X759153Y13628D01*
X755051Y17730D01*
X752819Y23119D01*
X752819Y28951D01*
X755051Y34340D01*
X759175Y38464D01*
X759881Y38756D01*
X759882Y38756D01*
X764564Y40696D01*
X770396Y40696D01*
X775785Y38464D01*
X779909Y34340D01*
X782141Y28951D01*
X782141Y23119D01*
X779909Y17730D01*
X775807Y13628D01*
X775801Y13621D01*
X775794Y13616D01*
X775674Y13466D01*
X775552Y13317D01*
X775547Y13309D01*
X775542Y13302D01*
X775453Y13132D01*
X775363Y12961D01*
X775360Y12952D01*
X775356Y12945D01*
X775303Y12760D01*
X775248Y12575D01*
X775247Y12566D01*
X775245Y12558D01*
X775229Y12366D01*
X775212Y12174D01*
X775213Y12165D01*
X775212Y12156D01*
X775234Y11967D01*
X775255Y11774D01*
X775258Y11765D01*
X775259Y11757D01*
X775318Y11575D01*
X775377Y11390D01*
X775381Y11382D01*
X775384Y11374D01*
X775479Y11205D01*
X775572Y11038D01*
X775577Y11031D01*
X775582Y11023D01*
X775708Y10877D01*
X775832Y10731D01*
X775839Y10725D01*
X775845Y10718D01*
X775996Y10601D01*
X776148Y10481D01*
X776156Y10477D01*
X776163Y10472D01*
X776335Y10386D01*
X776507Y10299D01*
X776515Y10296D01*
X776524Y10292D01*
X776709Y10242D01*
X776895Y10191D01*
X776904Y10190D01*
X776912Y10188D01*
X777243Y10161D01*
X807717Y10161D01*
X807726Y10162D01*
X807735Y10161D01*
X807927Y10182D01*
X808118Y10201D01*
X808126Y10203D01*
X808135Y10204D01*
X808317Y10262D01*
X808503Y10319D01*
X808510Y10323D01*
X808519Y10326D01*
X808687Y10419D01*
X808857Y10511D01*
X808863Y10516D01*
X808871Y10521D01*
X809018Y10645D01*
X809166Y10768D01*
X809171Y10775D01*
X809178Y10781D01*
X809297Y10932D01*
X809418Y11082D01*
X809422Y11090D01*
X809428Y11097D01*
X809516Y11270D01*
X809604Y11439D01*
X809606Y11448D01*
X809610Y11456D01*
X809662Y11642D01*
X809715Y11826D01*
X809716Y11835D01*
X809718Y11844D01*
X809732Y12037D01*
X809748Y12228D01*
X809747Y12236D01*
X809748Y12245D01*
X809723Y12438D01*
X809701Y12627D01*
X809698Y12636D01*
X809697Y12645D01*
X809636Y12828D01*
X809576Y13010D01*
X809572Y13018D01*
X809569Y13026D01*
X809473Y13193D01*
X809378Y13361D01*
X809372Y13368D01*
X809368Y13375D01*
X809153Y13628D01*
X805051Y17730D01*
X802819Y23119D01*
X802819Y28951D01*
X805051Y34340D01*
X809175Y38464D01*
X809881Y38756D01*
X809882Y38756D01*
X814564Y40696D01*
X820396Y40696D01*
X825785Y38464D01*
X829909Y34340D01*
X832141Y28951D01*
X832141Y23119D01*
X829909Y17730D01*
X825807Y13628D01*
X825801Y13621D01*
X825794Y13616D01*
X825674Y13466D01*
X825552Y13317D01*
X825547Y13309D01*
X825542Y13302D01*
X825453Y13132D01*
X825363Y12961D01*
X825360Y12952D01*
X825356Y12945D01*
X825303Y12760D01*
X825248Y12575D01*
X825247Y12566D01*
X825245Y12558D01*
X825229Y12366D01*
X825212Y12174D01*
X825213Y12165D01*
X825212Y12156D01*
X825234Y11967D01*
X825255Y11774D01*
X825258Y11765D01*
X825259Y11757D01*
X825318Y11575D01*
X825377Y11390D01*
X825381Y11382D01*
X825384Y11374D01*
X825479Y11205D01*
X825572Y11038D01*
X825577Y11031D01*
X825582Y11023D01*
X825708Y10877D01*
X825832Y10731D01*
X825839Y10725D01*
X825845Y10718D01*
X825996Y10601D01*
X826148Y10481D01*
X826156Y10477D01*
X826163Y10472D01*
X826335Y10386D01*
X826507Y10299D01*
X826515Y10296D01*
X826524Y10292D01*
X826709Y10242D01*
X826895Y10191D01*
X826904Y10190D01*
X826912Y10188D01*
X827243Y10161D01*
X987565Y10161D01*
X987582Y10162D01*
X987599Y10161D01*
X987783Y10182D01*
X987966Y10201D01*
X987982Y10206D01*
X987999Y10208D01*
X988175Y10265D01*
X988350Y10319D01*
X988366Y10327D01*
X988382Y10332D01*
X988543Y10423D01*
X988705Y10511D01*
X988718Y10522D01*
X988733Y10530D01*
X988873Y10651D01*
X989014Y10768D01*
X989025Y10782D01*
X989038Y10793D01*
X989151Y10939D01*
X989266Y11082D01*
X989274Y11097D01*
X989285Y11111D01*
X989367Y11277D01*
X989452Y11439D01*
X989456Y11456D01*
X989464Y11471D01*
X989512Y11650D01*
X989563Y11826D01*
X989564Y11843D01*
X989569Y11860D01*
X989596Y12191D01*
X989957Y647712D01*
X989956Y647730D01*
X989957Y647748D01*
X989936Y647930D01*
X989918Y648112D01*
X989912Y648130D01*
X989910Y648148D01*
X989853Y648322D01*
X989800Y648497D01*
X989791Y648513D01*
X989786Y648530D01*
X989695Y648690D01*
X989608Y648852D01*
X989597Y648865D01*
X989588Y648881D01*
X989467Y649021D01*
X989351Y649161D01*
X989337Y649172D01*
X989325Y649186D01*
X989179Y649299D01*
X989037Y649413D01*
X989021Y649422D01*
X989007Y649433D01*
X988843Y649515D01*
X988680Y649599D01*
X988662Y649604D01*
X988646Y649612D01*
X988470Y649660D01*
X988293Y649711D01*
X988275Y649712D01*
X988258Y649717D01*
X987927Y649744D01*
X838201Y649804D01*
X838183Y649802D01*
X838164Y649804D01*
X837982Y649782D01*
X837800Y649764D01*
X837783Y649759D01*
X837765Y649757D01*
X837590Y649700D01*
X837415Y649646D01*
X837399Y649638D01*
X837382Y649632D01*
X837222Y649542D01*
X837061Y649455D01*
X837047Y649443D01*
X837031Y649434D01*
X836893Y649314D01*
X836752Y649197D01*
X836740Y649183D01*
X836727Y649171D01*
X836615Y649027D01*
X836499Y648883D01*
X836491Y648867D01*
X836480Y648853D01*
X836398Y648689D01*
X836314Y648526D01*
X836309Y648509D01*
X836300Y648492D01*
X836253Y648315D01*
X836202Y648139D01*
X836201Y648121D01*
X836196Y648104D01*
X836169Y647773D01*
X836169Y586231D01*
X611631Y586231D01*
X611631Y647864D01*
X611630Y647882D01*
X611631Y647899D01*
X611610Y648082D01*
X611591Y648265D01*
X611586Y648281D01*
X611584Y648299D01*
X611527Y648474D01*
X611473Y648650D01*
X611465Y648665D01*
X611460Y648682D01*
X611369Y648842D01*
X611281Y649004D01*
X611270Y649017D01*
X611262Y649032D01*
X611141Y649173D01*
X611024Y649313D01*
X611010Y649324D01*
X610999Y649337D01*
X610852Y649451D01*
X610710Y649565D01*
X610695Y649573D01*
X610681Y649584D01*
X610515Y649666D01*
X610353Y649751D01*
X610336Y649756D01*
X610320Y649763D01*
X610143Y649811D01*
X609966Y649862D01*
X609948Y649864D01*
X609932Y649868D01*
X609601Y649895D01*
X12193Y650134D01*
X12175Y650133D01*
X12156Y650134D01*
X11974Y650113D01*
X11792Y650095D01*
X11775Y650089D01*
X11757Y650087D01*
X11582Y650030D01*
X11407Y649977D01*
X11391Y649968D01*
X11374Y649962D01*
X11214Y649872D01*
X11053Y649785D01*
X11039Y649773D01*
X11023Y649764D01*
X10885Y649645D01*
X10744Y649527D01*
X10732Y649513D01*
X10718Y649501D01*
X10607Y649357D01*
X10491Y649214D01*
X10483Y649198D01*
X10472Y649183D01*
X10390Y649019D01*
X10306Y648857D01*
X10301Y648839D01*
X10292Y648823D01*
X10245Y648645D01*
X10194Y648470D01*
X10193Y648452D01*
X10188Y648434D01*
X10161Y648103D01*
X10161Y12192D01*
X10163Y12174D01*
X10161Y12156D01*
X10182Y11974D01*
X10201Y11791D01*
X10206Y11774D01*
X10208Y11757D01*
X10265Y11582D01*
X10319Y11406D01*
X10327Y11391D01*
X10333Y11374D01*
X10423Y11214D01*
X10511Y11052D01*
X10522Y11039D01*
X10531Y11023D01*
X10651Y10884D01*
X10768Y10743D01*
X10782Y10732D01*
X10794Y10718D01*
X10939Y10606D01*
X11082Y10491D01*
X11098Y10483D01*
X11112Y10472D01*
X11277Y10390D01*
X11439Y10305D01*
X11456Y10300D01*
X11472Y10292D01*
X11651Y10245D01*
X11826Y10194D01*
X11844Y10192D01*
X11861Y10188D01*
X12192Y10161D01*
X757717Y10161D01*
X757726Y10162D01*
G37*
%LPC*%
G36*
X824242Y323877D02*
X824242Y323877D01*
X821918Y324840D01*
X821218Y325540D01*
X821197Y325557D01*
X821180Y325578D01*
X821042Y325685D01*
X820906Y325795D01*
X820883Y325808D01*
X820862Y325824D01*
X820705Y325902D01*
X820551Y325984D01*
X820525Y325992D01*
X820501Y326004D01*
X820332Y326049D01*
X820165Y326099D01*
X820138Y326101D01*
X820112Y326108D01*
X819782Y326135D01*
X799291Y326135D01*
X797798Y326754D01*
X773611Y350940D01*
X773591Y350957D01*
X773573Y350978D01*
X773435Y351085D01*
X773300Y351195D01*
X773276Y351208D01*
X773255Y351224D01*
X773098Y351302D01*
X772944Y351384D01*
X772919Y351392D01*
X772894Y351404D01*
X772725Y351449D01*
X772558Y351499D01*
X772532Y351501D01*
X772506Y351508D01*
X772175Y351535D01*
X710568Y351535D01*
X710542Y351533D01*
X710515Y351535D01*
X710341Y351513D01*
X710168Y351495D01*
X710142Y351488D01*
X710116Y351484D01*
X709950Y351429D01*
X709783Y351377D01*
X709759Y351364D01*
X709734Y351356D01*
X709582Y351269D01*
X709429Y351185D01*
X709408Y351168D01*
X709385Y351155D01*
X709132Y350940D01*
X708114Y349922D01*
X705790Y348960D01*
X703275Y348960D01*
X700951Y349922D01*
X699172Y351701D01*
X698210Y354025D01*
X698210Y356540D01*
X699172Y358864D01*
X700951Y360643D01*
X703275Y361605D01*
X705790Y361605D01*
X708114Y360643D01*
X708497Y360260D01*
X708518Y360243D01*
X708535Y360222D01*
X708673Y360115D01*
X708809Y360005D01*
X708832Y359992D01*
X708853Y359976D01*
X709010Y359898D01*
X709164Y359816D01*
X709190Y359808D01*
X709214Y359796D01*
X709383Y359751D01*
X709550Y359701D01*
X709577Y359699D01*
X709603Y359692D01*
X709933Y359665D01*
X713197Y359665D01*
X713201Y359665D01*
X713206Y359665D01*
X713402Y359685D01*
X713597Y359705D01*
X713601Y359706D01*
X713606Y359706D01*
X713797Y359766D01*
X713982Y359823D01*
X713986Y359825D01*
X713990Y359826D01*
X714164Y359921D01*
X714336Y360015D01*
X714340Y360017D01*
X714344Y360020D01*
X714495Y360147D01*
X714645Y360272D01*
X714648Y360276D01*
X714652Y360279D01*
X714775Y360433D01*
X714898Y360586D01*
X714900Y360590D01*
X714903Y360594D01*
X714993Y360771D01*
X715083Y360943D01*
X715084Y360948D01*
X715087Y360952D01*
X715141Y361143D01*
X715195Y361330D01*
X715195Y361335D01*
X715196Y361339D01*
X715211Y361533D01*
X715227Y361732D01*
X715227Y361736D01*
X715227Y361741D01*
X715204Y361933D01*
X715181Y362131D01*
X715179Y362136D01*
X715179Y362140D01*
X715116Y362328D01*
X715056Y362514D01*
X715053Y362518D01*
X715052Y362522D01*
X714954Y362694D01*
X714858Y362865D01*
X714855Y362868D01*
X714853Y362872D01*
X714724Y363020D01*
X714595Y363169D01*
X714591Y363172D01*
X714588Y363176D01*
X714433Y363295D01*
X714277Y363416D01*
X714273Y363418D01*
X714269Y363421D01*
X713974Y363573D01*
X713968Y363575D01*
X712190Y365353D01*
X711227Y367677D01*
X711227Y370193D01*
X712190Y372517D01*
X713968Y374295D01*
X716292Y375258D01*
X718808Y375258D01*
X721132Y374295D01*
X722467Y372960D01*
X722488Y372943D01*
X722505Y372922D01*
X722643Y372815D01*
X722779Y372705D01*
X722802Y372692D01*
X722823Y372676D01*
X722980Y372598D01*
X723134Y372516D01*
X723160Y372508D01*
X723184Y372496D01*
X723353Y372451D01*
X723520Y372401D01*
X723547Y372399D01*
X723573Y372392D01*
X723903Y372365D01*
X833907Y372365D01*
X833933Y372367D01*
X833960Y372365D01*
X834134Y372387D01*
X834307Y372405D01*
X834333Y372412D01*
X834359Y372416D01*
X834525Y372471D01*
X834692Y372523D01*
X834716Y372536D01*
X834741Y372544D01*
X834893Y372631D01*
X835046Y372715D01*
X835067Y372732D01*
X835090Y372745D01*
X835343Y372960D01*
X836043Y373660D01*
X836653Y373912D01*
X836653Y373913D01*
X838367Y374623D01*
X840883Y374623D01*
X843207Y373660D01*
X844985Y371882D01*
X845948Y369558D01*
X845948Y367042D01*
X844985Y364718D01*
X843207Y362940D01*
X840883Y361977D01*
X838367Y361977D01*
X836043Y362940D01*
X835343Y363640D01*
X835322Y363657D01*
X835305Y363678D01*
X835167Y363785D01*
X835031Y363895D01*
X835008Y363908D01*
X834987Y363924D01*
X834830Y364002D01*
X834676Y364084D01*
X834650Y364092D01*
X834626Y364104D01*
X834457Y364149D01*
X834290Y364199D01*
X834263Y364201D01*
X834237Y364208D01*
X833907Y364235D01*
X722633Y364235D01*
X722607Y364233D01*
X722580Y364235D01*
X722406Y364213D01*
X722233Y364195D01*
X722207Y364188D01*
X722181Y364184D01*
X722015Y364129D01*
X721848Y364077D01*
X721824Y364064D01*
X721799Y364056D01*
X721647Y363969D01*
X721494Y363885D01*
X721473Y363868D01*
X721450Y363855D01*
X721197Y363640D01*
X721132Y363575D01*
X721126Y363573D01*
X721122Y363571D01*
X721118Y363569D01*
X720947Y363477D01*
X720771Y363383D01*
X720768Y363380D01*
X720764Y363377D01*
X720615Y363253D01*
X720461Y363126D01*
X720458Y363123D01*
X720455Y363120D01*
X720332Y362967D01*
X720207Y362813D01*
X720205Y362809D01*
X720202Y362806D01*
X720113Y362633D01*
X720020Y362457D01*
X720019Y362453D01*
X720017Y362449D01*
X719963Y362260D01*
X719907Y362071D01*
X719907Y362066D01*
X719905Y362062D01*
X719889Y361862D01*
X719872Y361669D01*
X719873Y361665D01*
X719873Y361660D01*
X719896Y361463D01*
X719918Y361269D01*
X719919Y361265D01*
X719919Y361261D01*
X719981Y361072D01*
X720041Y360886D01*
X720043Y360882D01*
X720044Y360878D01*
X720142Y360704D01*
X720237Y360535D01*
X720240Y360531D01*
X720242Y360527D01*
X720371Y360378D01*
X720499Y360229D01*
X720502Y360226D01*
X720505Y360222D01*
X720658Y360104D01*
X720816Y359980D01*
X720820Y359978D01*
X720823Y359976D01*
X720998Y359889D01*
X721176Y359800D01*
X721180Y359798D01*
X721184Y359796D01*
X721377Y359744D01*
X721564Y359693D01*
X721568Y359693D01*
X721573Y359692D01*
X721903Y359665D01*
X775509Y359665D01*
X777002Y359046D01*
X801189Y334860D01*
X801209Y334843D01*
X801227Y334822D01*
X801365Y334715D01*
X801500Y334605D01*
X801524Y334592D01*
X801545Y334576D01*
X801702Y334498D01*
X801856Y334416D01*
X801881Y334408D01*
X801906Y334396D01*
X802075Y334351D01*
X802242Y334301D01*
X802268Y334299D01*
X802294Y334292D01*
X802625Y334265D01*
X819782Y334265D01*
X819808Y334267D01*
X819835Y334265D01*
X820009Y334287D01*
X820182Y334305D01*
X820208Y334312D01*
X820234Y334316D01*
X820400Y334371D01*
X820567Y334423D01*
X820591Y334436D01*
X820616Y334444D01*
X820768Y334531D01*
X820921Y334615D01*
X820942Y334632D01*
X820965Y334645D01*
X821218Y334860D01*
X821918Y335560D01*
X824242Y336523D01*
X826758Y336523D01*
X829082Y335560D01*
X830860Y333782D01*
X831823Y331458D01*
X831823Y328942D01*
X830860Y326618D01*
X829082Y324840D01*
X826758Y323877D01*
X824242Y323877D01*
G37*
%LPD*%
%LPC*%
G36*
X806145Y58130D02*
X806145Y58130D01*
X803821Y59092D01*
X802042Y60871D01*
X801080Y63195D01*
X801080Y65710D01*
X802042Y68034D01*
X802235Y68227D01*
X802252Y68247D01*
X802272Y68265D01*
X802379Y68403D01*
X802490Y68538D01*
X802502Y68562D01*
X802519Y68583D01*
X802597Y68740D01*
X802679Y68894D01*
X802686Y68919D01*
X802698Y68943D01*
X802744Y69113D01*
X802793Y69280D01*
X802796Y69306D01*
X802803Y69332D01*
X802830Y69663D01*
X802830Y94102D01*
X802827Y94129D01*
X802829Y94155D01*
X802807Y94329D01*
X802790Y94503D01*
X802782Y94528D01*
X802779Y94555D01*
X802723Y94720D01*
X802672Y94888D01*
X802659Y94911D01*
X802650Y94937D01*
X802563Y95088D01*
X802480Y95242D01*
X802463Y95262D01*
X802450Y95285D01*
X802235Y95538D01*
X775941Y121832D01*
X775920Y121849D01*
X775903Y121870D01*
X775765Y121977D01*
X775629Y122087D01*
X775606Y122100D01*
X775585Y122116D01*
X775428Y122194D01*
X775274Y122276D01*
X775248Y122284D01*
X775224Y122296D01*
X775055Y122341D01*
X774888Y122391D01*
X774861Y122393D01*
X774835Y122400D01*
X774505Y122427D01*
X688535Y122427D01*
X688509Y122425D01*
X688482Y122427D01*
X688308Y122405D01*
X688135Y122387D01*
X688109Y122380D01*
X688083Y122376D01*
X687917Y122321D01*
X687750Y122269D01*
X687726Y122256D01*
X687701Y122248D01*
X687549Y122161D01*
X687396Y122077D01*
X687375Y122060D01*
X687352Y122047D01*
X687099Y121832D01*
X685098Y119831D01*
X685081Y119810D01*
X685060Y119793D01*
X684953Y119655D01*
X684843Y119519D01*
X684830Y119496D01*
X684814Y119475D01*
X684736Y119318D01*
X684654Y119164D01*
X684646Y119138D01*
X684634Y119114D01*
X684589Y118945D01*
X684539Y118778D01*
X684537Y118751D01*
X684530Y118725D01*
X684503Y118395D01*
X684503Y118122D01*
X683540Y115798D01*
X681762Y114020D01*
X680739Y113596D01*
X679438Y113057D01*
X676922Y113057D01*
X674598Y114020D01*
X672820Y115798D01*
X671857Y118122D01*
X671857Y120638D01*
X672820Y122962D01*
X674598Y124740D01*
X676922Y125703D01*
X677195Y125703D01*
X677221Y125705D01*
X677248Y125703D01*
X677422Y125725D01*
X677595Y125743D01*
X677621Y125750D01*
X677647Y125754D01*
X677813Y125809D01*
X677980Y125861D01*
X678004Y125874D01*
X678029Y125882D01*
X678181Y125969D01*
X678334Y126053D01*
X678355Y126070D01*
X678378Y126083D01*
X678631Y126298D01*
X683210Y130877D01*
X684890Y131573D01*
X778150Y131573D01*
X779830Y130877D01*
X781402Y129305D01*
X809707Y101000D01*
X811279Y99428D01*
X811975Y97747D01*
X811975Y69663D01*
X811978Y69636D01*
X811976Y69610D01*
X811998Y69436D01*
X812015Y69262D01*
X812023Y69237D01*
X812026Y69210D01*
X812082Y69044D01*
X812133Y68877D01*
X812146Y68854D01*
X812155Y68828D01*
X812242Y68677D01*
X812325Y68523D01*
X812342Y68503D01*
X812355Y68480D01*
X812570Y68227D01*
X812763Y68034D01*
X813725Y65710D01*
X813725Y63195D01*
X812763Y60871D01*
X810984Y59092D01*
X810164Y58753D01*
X808660Y58130D01*
X806145Y58130D01*
G37*
%LPD*%
%LPC*%
G36*
X139388Y171839D02*
X139388Y171839D01*
X132530Y174680D01*
X127280Y179930D01*
X124439Y186788D01*
X124439Y194212D01*
X127280Y201070D01*
X132530Y206320D01*
X139388Y209161D01*
X146812Y209161D01*
X153670Y206320D01*
X158920Y201070D01*
X161761Y194212D01*
X161761Y186788D01*
X158920Y179930D01*
X153670Y174680D01*
X148414Y172503D01*
X148413Y172503D01*
X146812Y171839D01*
X139388Y171839D01*
G37*
%LPD*%
%LPC*%
G36*
X69388Y171839D02*
X69388Y171839D01*
X62530Y174680D01*
X57280Y179930D01*
X54439Y186788D01*
X54439Y194212D01*
X57280Y201070D01*
X62530Y206320D01*
X69388Y209161D01*
X76812Y209161D01*
X83670Y206320D01*
X88920Y201070D01*
X91761Y194212D01*
X91761Y186788D01*
X88920Y179930D01*
X83670Y174680D01*
X78414Y172503D01*
X78413Y172503D01*
X76812Y171839D01*
X69388Y171839D01*
G37*
%LPD*%
%LPC*%
G36*
X430542Y209577D02*
X430542Y209577D01*
X428218Y210540D01*
X426440Y212318D01*
X425477Y214642D01*
X425477Y217158D01*
X426440Y219482D01*
X428218Y221260D01*
X430542Y222223D01*
X433058Y222223D01*
X435382Y221260D01*
X435574Y221068D01*
X435595Y221051D01*
X435612Y221030D01*
X435750Y220923D01*
X435886Y220813D01*
X435909Y220800D01*
X435930Y220784D01*
X436087Y220706D01*
X436241Y220624D01*
X436267Y220616D01*
X436291Y220604D01*
X436460Y220559D01*
X436627Y220509D01*
X436654Y220507D01*
X436680Y220500D01*
X437010Y220473D01*
X502790Y220473D01*
X502816Y220475D01*
X502843Y220473D01*
X503017Y220495D01*
X503190Y220513D01*
X503216Y220520D01*
X503242Y220524D01*
X503408Y220579D01*
X503575Y220631D01*
X503599Y220644D01*
X503624Y220652D01*
X503776Y220739D01*
X503929Y220823D01*
X503950Y220840D01*
X503973Y220853D01*
X504226Y221068D01*
X504418Y221260D01*
X506742Y222223D01*
X509258Y222223D01*
X511582Y221260D01*
X513360Y219482D01*
X514323Y217158D01*
X514323Y214642D01*
X513360Y212318D01*
X511582Y210540D01*
X509258Y209577D01*
X506742Y209577D01*
X504418Y210540D01*
X504226Y210732D01*
X504205Y210749D01*
X504188Y210770D01*
X504050Y210877D01*
X503914Y210987D01*
X503891Y211000D01*
X503870Y211016D01*
X503713Y211094D01*
X503559Y211176D01*
X503533Y211184D01*
X503509Y211196D01*
X503340Y211241D01*
X503173Y211291D01*
X503146Y211293D01*
X503120Y211300D01*
X502790Y211327D01*
X437010Y211327D01*
X436984Y211325D01*
X436957Y211327D01*
X436783Y211305D01*
X436610Y211287D01*
X436584Y211280D01*
X436558Y211276D01*
X436392Y211221D01*
X436225Y211169D01*
X436201Y211156D01*
X436176Y211148D01*
X436024Y211061D01*
X435871Y210977D01*
X435850Y210960D01*
X435827Y210947D01*
X435574Y210732D01*
X435382Y210540D01*
X433058Y209577D01*
X430542Y209577D01*
G37*
%LPD*%
%LPC*%
G36*
X506742Y107977D02*
X506742Y107977D01*
X504418Y108940D01*
X502640Y110718D01*
X501677Y113042D01*
X501677Y115558D01*
X502640Y117882D01*
X502832Y118074D01*
X502849Y118095D01*
X502870Y118112D01*
X502977Y118250D01*
X503087Y118386D01*
X503100Y118409D01*
X503116Y118430D01*
X503194Y118587D01*
X503276Y118741D01*
X503284Y118767D01*
X503296Y118791D01*
X503341Y118960D01*
X503391Y119127D01*
X503393Y119154D01*
X503400Y119180D01*
X503427Y119510D01*
X503427Y185290D01*
X503425Y185316D01*
X503427Y185343D01*
X503405Y185517D01*
X503387Y185690D01*
X503380Y185716D01*
X503376Y185742D01*
X503321Y185908D01*
X503269Y186075D01*
X503256Y186099D01*
X503248Y186124D01*
X503161Y186276D01*
X503077Y186429D01*
X503060Y186450D01*
X503047Y186473D01*
X502832Y186726D01*
X502640Y186918D01*
X501677Y189242D01*
X501677Y191758D01*
X502640Y194082D01*
X504418Y195860D01*
X506742Y196823D01*
X509258Y196823D01*
X511582Y195860D01*
X513360Y194082D01*
X514323Y191758D01*
X514323Y189242D01*
X513360Y186918D01*
X513168Y186726D01*
X513151Y186705D01*
X513130Y186688D01*
X513023Y186550D01*
X512913Y186414D01*
X512900Y186391D01*
X512884Y186370D01*
X512806Y186213D01*
X512724Y186059D01*
X512716Y186033D01*
X512704Y186009D01*
X512659Y185840D01*
X512609Y185673D01*
X512607Y185646D01*
X512600Y185620D01*
X512573Y185290D01*
X512573Y119510D01*
X512575Y119484D01*
X512573Y119457D01*
X512595Y119283D01*
X512613Y119110D01*
X512620Y119084D01*
X512624Y119058D01*
X512679Y118892D01*
X512731Y118725D01*
X512744Y118701D01*
X512752Y118676D01*
X512839Y118524D01*
X512923Y118371D01*
X512940Y118350D01*
X512953Y118327D01*
X513168Y118074D01*
X513360Y117882D01*
X514323Y115558D01*
X514323Y113042D01*
X513360Y110718D01*
X511582Y108940D01*
X509258Y107977D01*
X506742Y107977D01*
G37*
%LPD*%
%LPC*%
G36*
X478742Y273677D02*
X478742Y273677D01*
X476418Y274640D01*
X474640Y276418D01*
X473677Y278742D01*
X473677Y281258D01*
X474640Y283582D01*
X474832Y283774D01*
X474849Y283795D01*
X474870Y283812D01*
X474977Y283950D01*
X475087Y284086D01*
X475100Y284109D01*
X475116Y284130D01*
X475194Y284287D01*
X475276Y284441D01*
X475284Y284467D01*
X475296Y284491D01*
X475341Y284660D01*
X475391Y284827D01*
X475393Y284854D01*
X475400Y284880D01*
X475427Y285210D01*
X475427Y344790D01*
X475425Y344816D01*
X475427Y344843D01*
X475405Y345017D01*
X475387Y345190D01*
X475380Y345216D01*
X475376Y345242D01*
X475321Y345408D01*
X475269Y345575D01*
X475256Y345599D01*
X475248Y345624D01*
X475161Y345776D01*
X475077Y345929D01*
X475060Y345950D01*
X475047Y345973D01*
X474832Y346226D01*
X474640Y346418D01*
X473677Y348742D01*
X473677Y351258D01*
X474640Y353582D01*
X476418Y355360D01*
X478742Y356323D01*
X481258Y356323D01*
X483582Y355360D01*
X485360Y353582D01*
X486323Y351258D01*
X486323Y348742D01*
X485360Y346418D01*
X485168Y346226D01*
X485151Y346205D01*
X485130Y346188D01*
X485023Y346050D01*
X484913Y345914D01*
X484900Y345891D01*
X484884Y345870D01*
X484806Y345713D01*
X484724Y345559D01*
X484716Y345533D01*
X484704Y345509D01*
X484659Y345340D01*
X484609Y345173D01*
X484607Y345146D01*
X484600Y345120D01*
X484573Y344790D01*
X484573Y285210D01*
X484575Y285184D01*
X484573Y285157D01*
X484595Y284983D01*
X484613Y284810D01*
X484620Y284784D01*
X484624Y284758D01*
X484679Y284592D01*
X484731Y284425D01*
X484744Y284401D01*
X484752Y284376D01*
X484839Y284224D01*
X484923Y284071D01*
X484940Y284050D01*
X484953Y284027D01*
X485168Y283774D01*
X485360Y283582D01*
X486323Y281258D01*
X486323Y278742D01*
X485360Y276418D01*
X483582Y274640D01*
X482194Y274065D01*
X481258Y273677D01*
X478742Y273677D01*
G37*
%LPD*%
%LPC*%
G36*
X767787Y452722D02*
X767787Y452722D01*
X765463Y453685D01*
X763685Y455463D01*
X762722Y457787D01*
X762722Y460303D01*
X763685Y462627D01*
X765463Y464405D01*
X767669Y465319D01*
X767787Y465368D01*
X770303Y465368D01*
X772881Y464300D01*
X772885Y464298D01*
X773039Y464216D01*
X773065Y464208D01*
X773089Y464196D01*
X773258Y464151D01*
X773425Y464101D01*
X773452Y464099D01*
X773478Y464092D01*
X773808Y464065D01*
X834282Y464065D01*
X834308Y464067D01*
X834335Y464065D01*
X834509Y464087D01*
X834682Y464105D01*
X834708Y464112D01*
X834734Y464116D01*
X834900Y464171D01*
X835067Y464223D01*
X835091Y464236D01*
X835116Y464244D01*
X835268Y464331D01*
X835421Y464415D01*
X835442Y464432D01*
X835465Y464445D01*
X835718Y464660D01*
X836418Y465360D01*
X838742Y466323D01*
X841258Y466323D01*
X843582Y465360D01*
X845360Y463582D01*
X846323Y461258D01*
X846323Y458742D01*
X845360Y456418D01*
X843582Y454640D01*
X841258Y453677D01*
X838742Y453677D01*
X836418Y454640D01*
X835718Y455340D01*
X835697Y455357D01*
X835680Y455378D01*
X835542Y455485D01*
X835406Y455595D01*
X835383Y455608D01*
X835362Y455624D01*
X835205Y455702D01*
X835051Y455784D01*
X835025Y455792D01*
X835001Y455804D01*
X834832Y455849D01*
X834665Y455899D01*
X834638Y455901D01*
X834612Y455908D01*
X834282Y455935D01*
X775718Y455935D01*
X775692Y455933D01*
X775665Y455935D01*
X775491Y455913D01*
X775318Y455895D01*
X775292Y455888D01*
X775266Y455884D01*
X775100Y455829D01*
X774933Y455777D01*
X774909Y455764D01*
X774884Y455756D01*
X774732Y455669D01*
X774579Y455585D01*
X774558Y455568D01*
X774535Y455555D01*
X774282Y455340D01*
X772627Y453685D01*
X770303Y452722D01*
X767787Y452722D01*
G37*
%LPD*%
%LPC*%
G36*
X937779Y591819D02*
X937779Y591819D01*
X934044Y593366D01*
X931186Y596224D01*
X929639Y599959D01*
X929639Y619241D01*
X931186Y622976D01*
X934044Y625834D01*
X937779Y627381D01*
X941821Y627381D01*
X945556Y625834D01*
X948414Y622976D01*
X949961Y619241D01*
X949961Y599959D01*
X948414Y596224D01*
X945556Y593366D01*
X941821Y591819D01*
X937779Y591819D01*
G37*
%LPD*%
%LPC*%
G36*
X912379Y591819D02*
X912379Y591819D01*
X908644Y593366D01*
X905786Y596224D01*
X904239Y599959D01*
X904239Y619241D01*
X905786Y622976D01*
X908644Y625834D01*
X912379Y627381D01*
X916421Y627381D01*
X920156Y625834D01*
X923014Y622976D01*
X924561Y619241D01*
X924561Y599959D01*
X923014Y596224D01*
X920156Y593366D01*
X916421Y591819D01*
X912379Y591819D01*
G37*
%LPD*%
%LPC*%
G36*
X886979Y591819D02*
X886979Y591819D01*
X883244Y593366D01*
X880386Y596224D01*
X878839Y599959D01*
X878839Y619241D01*
X880386Y622976D01*
X883244Y625834D01*
X886979Y627381D01*
X891021Y627381D01*
X894756Y625834D01*
X897614Y622976D01*
X899161Y619241D01*
X899161Y599959D01*
X897614Y596224D01*
X894756Y593366D01*
X891021Y591819D01*
X886979Y591819D01*
G37*
%LPD*%
%LPC*%
G36*
X838742Y413677D02*
X838742Y413677D01*
X836418Y414640D01*
X835718Y415340D01*
X835697Y415357D01*
X835680Y415378D01*
X835542Y415485D01*
X835406Y415595D01*
X835383Y415608D01*
X835362Y415624D01*
X835205Y415702D01*
X835051Y415784D01*
X835025Y415792D01*
X835001Y415804D01*
X834832Y415849D01*
X834665Y415899D01*
X834638Y415901D01*
X834612Y415908D01*
X834282Y415935D01*
X787033Y415935D01*
X787007Y415933D01*
X786980Y415935D01*
X786806Y415913D01*
X786633Y415895D01*
X786607Y415888D01*
X786581Y415884D01*
X786415Y415829D01*
X786248Y415777D01*
X786224Y415764D01*
X786199Y415756D01*
X786047Y415669D01*
X785894Y415585D01*
X785873Y415568D01*
X785850Y415555D01*
X785597Y415340D01*
X785267Y415010D01*
X782943Y414047D01*
X780427Y414047D01*
X778103Y415010D01*
X776325Y416788D01*
X775362Y419112D01*
X775362Y421628D01*
X776325Y423952D01*
X778103Y425730D01*
X780427Y426693D01*
X782943Y426693D01*
X785267Y425730D01*
X786337Y424660D01*
X786358Y424643D01*
X786375Y424622D01*
X786513Y424515D01*
X786649Y424405D01*
X786672Y424392D01*
X786693Y424376D01*
X786850Y424298D01*
X787004Y424216D01*
X787030Y424208D01*
X787054Y424196D01*
X787223Y424151D01*
X787390Y424101D01*
X787417Y424099D01*
X787443Y424092D01*
X787773Y424065D01*
X834282Y424065D01*
X834308Y424067D01*
X834335Y424065D01*
X834509Y424087D01*
X834682Y424105D01*
X834708Y424112D01*
X834734Y424116D01*
X834900Y424171D01*
X835067Y424223D01*
X835091Y424236D01*
X835116Y424244D01*
X835268Y424331D01*
X835421Y424415D01*
X835442Y424432D01*
X835465Y424445D01*
X835718Y424660D01*
X836418Y425360D01*
X838742Y426323D01*
X841258Y426323D01*
X843582Y425360D01*
X845360Y423582D01*
X846323Y421258D01*
X846323Y418742D01*
X845360Y416418D01*
X843582Y414640D01*
X842572Y414221D01*
X842571Y414221D01*
X841258Y413677D01*
X838742Y413677D01*
G37*
%LPD*%
%LPC*%
G36*
X544842Y222277D02*
X544842Y222277D01*
X542518Y223240D01*
X540740Y225018D01*
X539777Y227342D01*
X539777Y229858D01*
X540740Y232182D01*
X540932Y232374D01*
X540949Y232395D01*
X540970Y232412D01*
X541077Y232550D01*
X541187Y232686D01*
X541200Y232709D01*
X541216Y232730D01*
X541294Y232887D01*
X541376Y233041D01*
X541384Y233067D01*
X541396Y233091D01*
X541441Y233260D01*
X541491Y233427D01*
X541493Y233454D01*
X541500Y233480D01*
X541527Y233810D01*
X541527Y242210D01*
X542223Y243890D01*
X564582Y266249D01*
X564599Y266270D01*
X564620Y266287D01*
X564727Y266425D01*
X564837Y266561D01*
X564850Y266584D01*
X564866Y266605D01*
X564944Y266762D01*
X565026Y266916D01*
X565034Y266942D01*
X565046Y266966D01*
X565091Y267135D01*
X565141Y267302D01*
X565143Y267329D01*
X565150Y267355D01*
X565177Y267685D01*
X565177Y267958D01*
X566140Y270282D01*
X567918Y272060D01*
X568618Y272350D01*
X570242Y273023D01*
X572758Y273023D01*
X575082Y272060D01*
X576860Y270282D01*
X577823Y267958D01*
X577823Y265442D01*
X576860Y263118D01*
X575082Y261340D01*
X572758Y260377D01*
X572485Y260377D01*
X572459Y260375D01*
X572432Y260377D01*
X572258Y260355D01*
X572085Y260337D01*
X572059Y260330D01*
X572033Y260326D01*
X571867Y260271D01*
X571700Y260219D01*
X571676Y260206D01*
X571651Y260198D01*
X571499Y260111D01*
X571346Y260027D01*
X571325Y260010D01*
X571302Y259997D01*
X571049Y259782D01*
X551268Y240001D01*
X551251Y239980D01*
X551230Y239963D01*
X551123Y239825D01*
X551013Y239689D01*
X551000Y239666D01*
X550984Y239645D01*
X550906Y239488D01*
X550824Y239334D01*
X550816Y239308D01*
X550804Y239284D01*
X550759Y239115D01*
X550709Y238948D01*
X550707Y238921D01*
X550700Y238895D01*
X550673Y238565D01*
X550673Y233810D01*
X550675Y233784D01*
X550673Y233757D01*
X550695Y233583D01*
X550713Y233410D01*
X550720Y233384D01*
X550724Y233358D01*
X550779Y233192D01*
X550831Y233025D01*
X550844Y233001D01*
X550852Y232976D01*
X550939Y232824D01*
X551023Y232671D01*
X551040Y232650D01*
X551053Y232627D01*
X551268Y232374D01*
X551460Y232182D01*
X552423Y229858D01*
X552423Y227342D01*
X551460Y225018D01*
X549682Y223240D01*
X547358Y222277D01*
X544842Y222277D01*
G37*
%LPD*%
%LPC*%
G36*
X776617Y55272D02*
X776617Y55272D01*
X774293Y56235D01*
X772515Y58013D01*
X771552Y60337D01*
X771552Y62853D01*
X772515Y65177D01*
X772682Y65344D01*
X772699Y65365D01*
X772720Y65382D01*
X772827Y65520D01*
X772937Y65656D01*
X772950Y65679D01*
X772966Y65700D01*
X773044Y65857D01*
X773126Y66011D01*
X773134Y66037D01*
X773146Y66061D01*
X773191Y66230D01*
X773241Y66397D01*
X773243Y66424D01*
X773250Y66450D01*
X773277Y66780D01*
X773277Y95145D01*
X773275Y95171D01*
X773277Y95198D01*
X773255Y95372D01*
X773237Y95545D01*
X773230Y95571D01*
X773226Y95597D01*
X773171Y95763D01*
X773119Y95930D01*
X773106Y95954D01*
X773098Y95979D01*
X773011Y96131D01*
X772927Y96284D01*
X772910Y96305D01*
X772897Y96328D01*
X772682Y96581D01*
X772490Y96773D01*
X771527Y99097D01*
X771527Y101613D01*
X772490Y103937D01*
X774268Y105715D01*
X774443Y105787D01*
X774443Y105788D01*
X776592Y106678D01*
X779108Y106678D01*
X781432Y105715D01*
X783210Y103937D01*
X784173Y101613D01*
X784173Y99097D01*
X783210Y96773D01*
X783018Y96581D01*
X783001Y96560D01*
X782980Y96543D01*
X782873Y96405D01*
X782763Y96269D01*
X782750Y96246D01*
X782734Y96225D01*
X782656Y96068D01*
X782574Y95914D01*
X782566Y95888D01*
X782554Y95864D01*
X782509Y95695D01*
X782459Y95528D01*
X782457Y95501D01*
X782450Y95475D01*
X782423Y95145D01*
X782423Y66830D01*
X782425Y66804D01*
X782423Y66777D01*
X782445Y66603D01*
X782463Y66430D01*
X782470Y66404D01*
X782474Y66378D01*
X782529Y66212D01*
X782581Y66045D01*
X782594Y66021D01*
X782602Y65996D01*
X782689Y65844D01*
X782773Y65691D01*
X782790Y65670D01*
X782803Y65647D01*
X783018Y65394D01*
X783235Y65177D01*
X784198Y62853D01*
X784198Y60337D01*
X783235Y58013D01*
X781457Y56235D01*
X779133Y55272D01*
X776617Y55272D01*
G37*
%LPD*%
%LPC*%
G36*
X773442Y209577D02*
X773442Y209577D01*
X771118Y210540D01*
X769340Y212318D01*
X768377Y214642D01*
X768377Y217158D01*
X769340Y219482D01*
X771118Y221260D01*
X773442Y222223D01*
X775958Y222223D01*
X778282Y221260D01*
X778474Y221068D01*
X778495Y221051D01*
X778512Y221030D01*
X778650Y220923D01*
X778786Y220813D01*
X778809Y220800D01*
X778830Y220784D01*
X778987Y220706D01*
X779141Y220624D01*
X779167Y220616D01*
X779191Y220604D01*
X779360Y220559D01*
X779527Y220509D01*
X779554Y220507D01*
X779580Y220500D01*
X779910Y220473D01*
X807590Y220473D01*
X807616Y220475D01*
X807643Y220473D01*
X807817Y220495D01*
X807990Y220513D01*
X808016Y220520D01*
X808042Y220524D01*
X808208Y220579D01*
X808375Y220631D01*
X808399Y220644D01*
X808424Y220652D01*
X808576Y220739D01*
X808729Y220823D01*
X808750Y220840D01*
X808773Y220853D01*
X809026Y221068D01*
X809218Y221260D01*
X811542Y222223D01*
X814058Y222223D01*
X816382Y221260D01*
X818160Y219482D01*
X819123Y217158D01*
X819123Y214642D01*
X818160Y212318D01*
X816382Y210540D01*
X814058Y209577D01*
X811542Y209577D01*
X809218Y210540D01*
X809026Y210732D01*
X809005Y210749D01*
X808988Y210770D01*
X808850Y210877D01*
X808714Y210987D01*
X808691Y211000D01*
X808670Y211016D01*
X808513Y211094D01*
X808359Y211176D01*
X808333Y211184D01*
X808309Y211196D01*
X808140Y211241D01*
X807973Y211291D01*
X807946Y211293D01*
X807920Y211300D01*
X807590Y211327D01*
X779910Y211327D01*
X779884Y211325D01*
X779857Y211327D01*
X779683Y211305D01*
X779510Y211287D01*
X779484Y211280D01*
X779458Y211276D01*
X779292Y211221D01*
X779125Y211169D01*
X779101Y211156D01*
X779076Y211148D01*
X778924Y211061D01*
X778771Y210977D01*
X778750Y210960D01*
X778727Y210947D01*
X778474Y210732D01*
X778282Y210540D01*
X775958Y209577D01*
X773442Y209577D01*
G37*
%LPD*%
%LPC*%
G36*
X316242Y158777D02*
X316242Y158777D01*
X313918Y159740D01*
X312140Y161518D01*
X311177Y163842D01*
X311177Y166358D01*
X312140Y168682D01*
X313918Y170460D01*
X316242Y171423D01*
X316515Y171423D01*
X316541Y171425D01*
X316568Y171423D01*
X316742Y171445D01*
X316915Y171463D01*
X316941Y171470D01*
X316967Y171474D01*
X317133Y171529D01*
X317300Y171581D01*
X317324Y171594D01*
X317349Y171602D01*
X317501Y171689D01*
X317654Y171773D01*
X317675Y171790D01*
X317698Y171803D01*
X317951Y172018D01*
X335982Y190049D01*
X335999Y190070D01*
X336020Y190087D01*
X336127Y190225D01*
X336237Y190361D01*
X336250Y190384D01*
X336266Y190405D01*
X336344Y190562D01*
X336426Y190716D01*
X336434Y190742D01*
X336446Y190766D01*
X336491Y190935D01*
X336541Y191102D01*
X336543Y191129D01*
X336550Y191155D01*
X336577Y191485D01*
X336577Y191758D01*
X337540Y194082D01*
X339318Y195860D01*
X341642Y196823D01*
X344158Y196823D01*
X346482Y195860D01*
X348260Y194082D01*
X349223Y191758D01*
X349223Y189242D01*
X348260Y186918D01*
X346482Y185140D01*
X345396Y184690D01*
X344158Y184177D01*
X343885Y184177D01*
X343859Y184175D01*
X343832Y184177D01*
X343658Y184155D01*
X343485Y184137D01*
X343459Y184130D01*
X343433Y184126D01*
X343267Y184071D01*
X343100Y184019D01*
X343076Y184006D01*
X343051Y183998D01*
X342899Y183911D01*
X342746Y183827D01*
X342725Y183810D01*
X342702Y183797D01*
X342449Y183582D01*
X324418Y165551D01*
X324401Y165530D01*
X324380Y165513D01*
X324273Y165375D01*
X324163Y165239D01*
X324150Y165216D01*
X324134Y165195D01*
X324056Y165038D01*
X323974Y164884D01*
X323966Y164858D01*
X323954Y164834D01*
X323909Y164665D01*
X323859Y164498D01*
X323857Y164471D01*
X323850Y164445D01*
X323823Y164115D01*
X323823Y163842D01*
X322860Y161518D01*
X321082Y159740D01*
X318758Y158777D01*
X316242Y158777D01*
G37*
%LPD*%
%LPC*%
G36*
X936320Y339435D02*
X936320Y339435D01*
X933996Y340397D01*
X932217Y342176D01*
X931255Y344500D01*
X931255Y344855D01*
X931252Y344882D01*
X931254Y344909D01*
X931232Y345083D01*
X931215Y345256D01*
X931207Y345282D01*
X931204Y345308D01*
X931148Y345474D01*
X931097Y345641D01*
X931084Y345665D01*
X931075Y345690D01*
X930988Y345842D01*
X930905Y345995D01*
X930888Y346015D01*
X930875Y346039D01*
X930660Y346292D01*
X915569Y361382D01*
X915549Y361399D01*
X915531Y361420D01*
X915393Y361527D01*
X915258Y361637D01*
X915234Y361650D01*
X915213Y361666D01*
X915056Y361744D01*
X914902Y361826D01*
X914877Y361834D01*
X914852Y361846D01*
X914683Y361891D01*
X914516Y361941D01*
X914490Y361943D01*
X914464Y361950D01*
X914133Y361977D01*
X913142Y361977D01*
X910818Y362940D01*
X909040Y364718D01*
X908077Y367042D01*
X908077Y369558D01*
X909040Y371882D01*
X910818Y373660D01*
X911428Y373912D01*
X911428Y373913D01*
X913142Y374623D01*
X915658Y374623D01*
X917982Y373660D01*
X919760Y371882D01*
X920723Y369558D01*
X920723Y368567D01*
X920725Y368540D01*
X920723Y368514D01*
X920745Y368340D01*
X920763Y368166D01*
X920770Y368141D01*
X920774Y368114D01*
X920829Y367949D01*
X920881Y367782D01*
X920894Y367758D01*
X920902Y367733D01*
X920989Y367581D01*
X921073Y367427D01*
X921090Y367407D01*
X921103Y367384D01*
X921318Y367131D01*
X935773Y352675D01*
X935794Y352658D01*
X935811Y352638D01*
X935949Y352531D01*
X936085Y352420D01*
X936108Y352408D01*
X936130Y352391D01*
X936286Y352313D01*
X936440Y352231D01*
X936466Y352224D01*
X936490Y352212D01*
X936659Y352166D01*
X936826Y352117D01*
X936853Y352114D01*
X936879Y352107D01*
X937210Y352080D01*
X938835Y352080D01*
X941159Y351118D01*
X942938Y349339D01*
X943900Y347015D01*
X943900Y344500D01*
X942938Y342176D01*
X941159Y340397D01*
X938835Y339435D01*
X936320Y339435D01*
G37*
%LPD*%
%LPC*%
G36*
X430542Y476277D02*
X430542Y476277D01*
X428218Y477240D01*
X426440Y479018D01*
X425477Y481342D01*
X425477Y483858D01*
X426440Y486182D01*
X427140Y486882D01*
X427157Y486903D01*
X427178Y486920D01*
X427285Y487058D01*
X427395Y487194D01*
X427408Y487217D01*
X427424Y487238D01*
X427502Y487395D01*
X427584Y487549D01*
X427592Y487575D01*
X427604Y487599D01*
X427649Y487768D01*
X427699Y487935D01*
X427701Y487962D01*
X427708Y487988D01*
X427735Y488318D01*
X427735Y502282D01*
X427733Y502308D01*
X427735Y502335D01*
X427713Y502509D01*
X427695Y502682D01*
X427688Y502708D01*
X427684Y502734D01*
X427629Y502900D01*
X427577Y503067D01*
X427564Y503091D01*
X427556Y503116D01*
X427469Y503268D01*
X427385Y503421D01*
X427368Y503442D01*
X427355Y503465D01*
X427140Y503718D01*
X426440Y504418D01*
X425477Y506742D01*
X425477Y509258D01*
X426440Y511582D01*
X428218Y513360D01*
X430542Y514323D01*
X433058Y514323D01*
X435382Y513360D01*
X437160Y511582D01*
X438123Y509258D01*
X438123Y506742D01*
X437160Y504418D01*
X436460Y503718D01*
X436443Y503697D01*
X436422Y503680D01*
X436315Y503542D01*
X436205Y503406D01*
X436192Y503383D01*
X436176Y503362D01*
X436098Y503205D01*
X436016Y503051D01*
X436008Y503025D01*
X435996Y503001D01*
X435951Y502832D01*
X435901Y502665D01*
X435899Y502638D01*
X435892Y502612D01*
X435865Y502282D01*
X435865Y488318D01*
X435867Y488292D01*
X435865Y488265D01*
X435887Y488091D01*
X435905Y487918D01*
X435912Y487892D01*
X435916Y487866D01*
X435971Y487700D01*
X436023Y487533D01*
X436036Y487509D01*
X436044Y487484D01*
X436131Y487332D01*
X436215Y487179D01*
X436232Y487158D01*
X436245Y487135D01*
X436460Y486882D01*
X437160Y486182D01*
X438123Y483858D01*
X438123Y481342D01*
X437160Y479018D01*
X435382Y477240D01*
X435262Y477190D01*
X433058Y476277D01*
X430542Y476277D01*
G37*
%LPD*%
%LPC*%
G36*
X967739Y612139D02*
X967739Y612139D01*
X967739Y627079D01*
X969100Y626636D01*
X970525Y625910D01*
X971819Y624970D01*
X972950Y623839D01*
X973890Y622545D01*
X974616Y621120D01*
X975111Y619599D01*
X975361Y618020D01*
X975361Y612139D01*
X967739Y612139D01*
G37*
%LPD*%
%LPC*%
G36*
X967739Y607061D02*
X967739Y607061D01*
X975361Y607061D01*
X975361Y601180D01*
X975111Y599601D01*
X974616Y598080D01*
X973890Y596655D01*
X972950Y595361D01*
X971819Y594230D01*
X970525Y593290D01*
X969100Y592564D01*
X967739Y592121D01*
X967739Y607061D01*
G37*
%LPD*%
%LPC*%
G36*
X955039Y612139D02*
X955039Y612139D01*
X955039Y618020D01*
X955289Y619599D01*
X955784Y621120D01*
X956510Y622545D01*
X957450Y623839D01*
X958581Y624970D01*
X959875Y625910D01*
X961300Y626636D01*
X962661Y627079D01*
X962661Y612139D01*
X955039Y612139D01*
G37*
%LPD*%
%LPC*%
G36*
X961300Y592564D02*
X961300Y592564D01*
X959875Y593290D01*
X958581Y594230D01*
X957450Y595361D01*
X956510Y596655D01*
X955784Y598080D01*
X955289Y599601D01*
X955039Y601180D01*
X955039Y607061D01*
X962661Y607061D01*
X962661Y592121D01*
X961300Y592564D01*
G37*
%LPD*%
D10*
X889000Y601980D02*
X889000Y617220D01*
X914400Y617220D02*
X914400Y601980D01*
X939800Y601980D02*
X939800Y617220D01*
X965200Y617220D02*
X965200Y601980D01*
D11*
X850900Y215900D03*
X901700Y228600D03*
X674370Y219710D03*
X702310Y296545D03*
X594995Y265430D03*
X520065Y289560D03*
X441325Y73660D03*
X376555Y282575D03*
X230505Y164465D03*
X27305Y456565D03*
X40005Y456565D03*
X52705Y456565D03*
X65405Y456565D03*
X78105Y456565D03*
X33020Y447040D03*
X45720Y447040D03*
X59055Y447675D03*
X71755Y448310D03*
X598805Y532765D03*
X586105Y583565D03*
X965200Y279400D03*
X35560Y511175D03*
X47625Y511175D03*
X59055Y511175D03*
X72390Y511810D03*
X85725Y511810D03*
X101600Y511810D03*
X92710Y502285D03*
X79375Y502285D03*
X66040Y502285D03*
X53340Y501650D03*
X41275Y501650D03*
X29210Y501650D03*
X501650Y379730D03*
X509905Y371475D03*
X518160Y363220D03*
X526415Y354965D03*
X534670Y347345D03*
X499110Y369570D03*
X506730Y360680D03*
X514985Y352425D03*
X523240Y344805D03*
X532130Y337185D03*
X525145Y406400D03*
X532765Y397510D03*
X541020Y389255D03*
X548640Y381000D03*
X561340Y368300D03*
X537845Y407035D03*
X546100Y399415D03*
X553720Y391160D03*
X562610Y382270D03*
X954355Y382667D03*
X965785Y382667D03*
X976580Y382667D03*
X960070Y390922D03*
X972135Y391557D03*
X982295Y392192D03*
X958216Y345632D03*
X969060Y346218D03*
X979855Y346218D03*
X962612Y336595D03*
X974188Y337915D03*
X984935Y337328D03*
X968425Y328438D03*
X981125Y328438D03*
X234315Y461645D03*
X247015Y461645D03*
X259715Y461645D03*
X272415Y461645D03*
X285115Y461645D03*
X240030Y452120D03*
X252730Y452120D03*
X266065Y452755D03*
X278765Y453390D03*
X287020Y501015D03*
X274320Y501015D03*
X261620Y501015D03*
X248920Y501015D03*
X236220Y501015D03*
X281305Y510540D03*
X268605Y510540D03*
X255270Y509905D03*
X242570Y509270D03*
X602426Y16315D03*
X602426Y29015D03*
X602426Y41715D03*
X602426Y54415D03*
X602426Y67115D03*
X611951Y22030D03*
X611951Y34730D03*
X611316Y48065D03*
X610681Y60765D03*
X505404Y24765D03*
X518104Y24765D03*
X530804Y24765D03*
X543504Y24765D03*
X556204Y24765D03*
X511119Y15240D03*
X523819Y15240D03*
X537154Y15875D03*
X549854Y16510D03*
X961700Y258600D03*
X431800Y482600D03*
X431800Y508000D03*
D12*
X431800Y482600D01*
D11*
X571500Y266700D03*
X546100Y228600D03*
X508000Y190500D03*
X508000Y114300D03*
D13*
X508000Y190500D01*
X546100Y228600D02*
X546100Y241300D01*
X571500Y266700D01*
D11*
X431800Y215900D03*
D13*
X508000Y215900D01*
D11*
X508000Y215900D03*
X777850Y100355D03*
D13*
X777850Y61620D01*
X777875Y61595D01*
D11*
X777875Y61595D03*
X807403Y64453D03*
D13*
X807403Y96838D01*
X777240Y127000D02*
X685800Y127000D01*
X678180Y119380D01*
D11*
X678180Y119380D03*
D13*
X777240Y127000D02*
X807403Y96838D01*
D11*
X812800Y215900D03*
D13*
X774700Y215900D01*
D11*
X774700Y215900D03*
X342900Y190500D03*
D13*
X317500Y165100D01*
D11*
X317500Y165100D03*
X480000Y350000D03*
D13*
X480000Y280000D01*
D11*
X480000Y280000D03*
X825500Y330200D03*
D12*
X800100Y330200D01*
X774700Y355600D01*
X705485Y355600D01*
X704850Y354965D01*
X704533Y355283D01*
D11*
X704533Y355283D03*
X937578Y345758D03*
D12*
X936943Y345758D01*
X914400Y368300D01*
D11*
X914400Y368300D03*
X839625Y368300D03*
D12*
X718185Y368300D01*
X717550Y368935D01*
D11*
X717550Y368935D03*
X840000Y420000D03*
D12*
X782055Y420000D01*
X781685Y420370D01*
D11*
X781685Y420370D03*
X840000Y460000D03*
D12*
X769880Y460000D01*
X768985Y459105D01*
X769045Y459045D01*
D11*
X769045Y459045D03*
M02*
