G04 EAGLE Gerber RS-274X export*
G75*
%MOMM*%
%FSLAX34Y34*%
%LPD*%
%INSoldermask Top*%
%IPPOS*%
%AMOC8*
5,1,8,0,0,1.08239X$1,22.5*%
G01*
%ADD10R,1.203200X1.303200*%
%ADD11R,1.703200X1.503200*%
%ADD12R,1.703200X1.103200*%
%ADD13R,1.103200X1.703200*%
%ADD14R,1.103200X1.103200*%
%ADD15R,1.403200X0.803200*%
%ADD16R,1.603200X0.803200*%
%ADD17R,2.103200X1.103200*%
%ADD18R,2.103200X3.403200*%
%ADD19R,1.453200X0.803200*%
%ADD20R,0.803200X1.403200*%
%ADD21R,1.653200X0.653200*%
%ADD22R,1.553200X0.603200*%
%ADD23R,1.603200X1.803200*%
%ADD24R,1.503200X2.503200*%
%ADD25R,2.103200X2.003200*%
%ADD26R,1.203200X3.703200*%
%ADD27R,1.703200X3.603200*%
%ADD28R,2.403200X3.003200*%
%ADD29R,3.003200X2.803200*%
%ADD30C,1.903200*%
%ADD31C,1.727200*%
%ADD32R,1.503200X1.703200*%
%ADD33R,1.903200X1.003200*%
%ADD34C,1.103200*%
%ADD35R,0.903200X1.703200*%
%ADD36R,1.203200X1.003200*%
%ADD37R,1.603200X1.153200*%
%ADD38R,1.153200X1.603200*%
%ADD39C,0.959600*%


D10*
X626700Y298265D03*
X626700Y281265D03*
D11*
X456565Y212750D03*
X456565Y231750D03*
D10*
X673100Y313300D03*
X673100Y296300D03*
X558800Y512200D03*
X558800Y529200D03*
D11*
X916305Y267360D03*
X916305Y286360D03*
X812800Y244500D03*
X812800Y263500D03*
X457200Y142900D03*
X457200Y161900D03*
X368300Y73000D03*
X368300Y54000D03*
X584200Y142900D03*
X584200Y161900D03*
X495300Y142900D03*
X495300Y161900D03*
X437995Y361975D03*
X437995Y380975D03*
D12*
X636400Y573300D03*
X636400Y560600D03*
X636400Y547900D03*
X636400Y535200D03*
X636400Y522500D03*
X636400Y509800D03*
X636400Y497100D03*
X636400Y484400D03*
X636400Y471700D03*
X636400Y459000D03*
X636400Y446300D03*
X636400Y433600D03*
X636400Y420900D03*
X636400Y408200D03*
D13*
X654050Y395700D03*
X666750Y395700D03*
X679450Y395700D03*
X692150Y395700D03*
X704850Y395700D03*
X717550Y395700D03*
X730250Y395700D03*
X742950Y395700D03*
X755650Y395700D03*
X768350Y395700D03*
X781050Y395700D03*
X793750Y395700D03*
D12*
X811400Y408200D03*
X811400Y420900D03*
X811400Y433600D03*
X811400Y446300D03*
X811400Y459000D03*
X811400Y471700D03*
X811400Y484400D03*
X811400Y497100D03*
X811400Y509800D03*
X811400Y522500D03*
X811400Y535200D03*
X811400Y547900D03*
X811400Y560600D03*
X811400Y573300D03*
D14*
X708900Y496100D03*
X694900Y510100D03*
X694900Y496100D03*
X694900Y482100D03*
X708900Y482100D03*
X722900Y482100D03*
X722900Y496100D03*
X722900Y510100D03*
X708900Y510100D03*
D15*
X380165Y381025D03*
X380165Y390525D03*
X380165Y400025D03*
X355165Y400025D03*
X355165Y381025D03*
D16*
X851100Y263500D03*
X851100Y254000D03*
X851100Y244500D03*
X876100Y244500D03*
X876100Y263500D03*
D17*
X663555Y106320D03*
X663555Y91320D03*
X663555Y76320D03*
X663555Y61320D03*
D18*
X724555Y83820D03*
D19*
X698700Y238100D03*
X698700Y228600D03*
X698700Y219100D03*
X723700Y219100D03*
X723700Y238100D03*
D15*
X470100Y98400D03*
X470100Y88900D03*
X470100Y79400D03*
X495100Y79400D03*
X495100Y98400D03*
D20*
X530200Y266500D03*
X520700Y266500D03*
X511200Y266500D03*
X511200Y241500D03*
X530200Y241500D03*
X358800Y305000D03*
X368300Y305000D03*
X377800Y305000D03*
X377800Y330000D03*
X358800Y330000D03*
D21*
X244450Y200250D03*
X244450Y193750D03*
X244450Y187250D03*
X244450Y180750D03*
X288950Y180750D03*
X288950Y187250D03*
X288950Y193750D03*
X288950Y200250D03*
D22*
X953055Y178135D03*
X953055Y184635D03*
X953055Y191135D03*
X953055Y197635D03*
X953055Y204135D03*
D23*
X955305Y159135D03*
X955305Y223135D03*
D24*
X979805Y153635D03*
D25*
X979805Y179635D03*
X979805Y202635D03*
D24*
X979805Y228635D03*
D26*
X929800Y88900D03*
X949800Y88900D03*
D27*
X906300Y33400D03*
X973300Y33400D03*
D28*
X62100Y153500D03*
D29*
X156100Y152500D03*
D28*
X82100Y227500D03*
D30*
X73100Y190500D03*
X143100Y190500D03*
D31*
X889000Y601980D02*
X889000Y617220D01*
X914400Y617220D02*
X914400Y601980D01*
X939800Y601980D02*
X939800Y617220D01*
X965200Y617220D02*
X965200Y601980D01*
D11*
X723900Y314300D03*
X723900Y295300D03*
X406400Y231800D03*
X406400Y250800D03*
D32*
X257200Y254000D03*
X276200Y254000D03*
X373990Y434975D03*
X354990Y434975D03*
X420395Y434975D03*
X439395Y434975D03*
D11*
X520700Y530200D03*
X520700Y511200D03*
D32*
X850240Y300990D03*
X831240Y300990D03*
D11*
X876300Y306680D03*
X876300Y287680D03*
D32*
X346100Y127000D03*
X365100Y127000D03*
X428600Y101600D03*
X409600Y101600D03*
D11*
X533400Y79400D03*
X533400Y98400D03*
X534035Y161900D03*
X534035Y142900D03*
D32*
X492100Y317500D03*
X473100Y317500D03*
D33*
X368300Y639300D03*
X368300Y605300D03*
X495300Y605300D03*
X495300Y639300D03*
D34*
X767480Y26035D03*
X817480Y26035D03*
D35*
X762480Y43535D03*
X777480Y43535D03*
X807480Y43535D03*
X822480Y43535D03*
D36*
X740980Y37035D03*
X740980Y15035D03*
X843980Y37035D03*
X843980Y15035D03*
D37*
X787460Y189500D03*
X787460Y170500D03*
D38*
X899500Y460000D03*
X880500Y460000D03*
X899500Y420000D03*
X880500Y420000D03*
D39*
X850900Y215900D03*
X901700Y228600D03*
X674370Y219710D03*
X702310Y296545D03*
X594995Y265430D03*
X520065Y289560D03*
X441325Y73660D03*
X376555Y282575D03*
X230505Y164465D03*
X27305Y456565D03*
X40005Y456565D03*
X52705Y456565D03*
X65405Y456565D03*
X78105Y456565D03*
X33020Y447040D03*
X45720Y447040D03*
X59055Y447675D03*
X71755Y448310D03*
X598805Y532765D03*
X586105Y583565D03*
X965200Y279400D03*
X35560Y511175D03*
X47625Y511175D03*
X59055Y511175D03*
X72390Y511810D03*
X85725Y511810D03*
X101600Y511810D03*
X92710Y502285D03*
X79375Y502285D03*
X66040Y502285D03*
X53340Y501650D03*
X41275Y501650D03*
X29210Y501650D03*
X501650Y379730D03*
X509905Y371475D03*
X518160Y363220D03*
X526415Y354965D03*
X534670Y347345D03*
X499110Y369570D03*
X506730Y360680D03*
X514985Y352425D03*
X523240Y344805D03*
X532130Y337185D03*
X525145Y406400D03*
X532765Y397510D03*
X541020Y389255D03*
X548640Y381000D03*
X561340Y368300D03*
X537845Y407035D03*
X546100Y399415D03*
X553720Y391160D03*
X562610Y382270D03*
X954355Y382667D03*
X965785Y382667D03*
X976580Y382667D03*
X960070Y390922D03*
X972135Y391557D03*
X982295Y392192D03*
X958216Y345632D03*
X969060Y346218D03*
X979855Y346218D03*
X962612Y336595D03*
X974188Y337915D03*
X984935Y337328D03*
X968425Y328438D03*
X981125Y328438D03*
X234315Y461645D03*
X247015Y461645D03*
X259715Y461645D03*
X272415Y461645D03*
X285115Y461645D03*
X240030Y452120D03*
X252730Y452120D03*
X266065Y452755D03*
X278765Y453390D03*
X287020Y501015D03*
X274320Y501015D03*
X261620Y501015D03*
X248920Y501015D03*
X236220Y501015D03*
X281305Y510540D03*
X268605Y510540D03*
X255270Y509905D03*
X242570Y509270D03*
X602426Y16315D03*
X602426Y29015D03*
X602426Y41715D03*
X602426Y54415D03*
X602426Y67115D03*
X611951Y22030D03*
X611951Y34730D03*
X611316Y48065D03*
X610681Y60765D03*
X505404Y24765D03*
X518104Y24765D03*
X530804Y24765D03*
X543504Y24765D03*
X556204Y24765D03*
X511119Y15240D03*
X523819Y15240D03*
X537154Y15875D03*
X549854Y16510D03*
X961700Y258600D03*
X431800Y482600D03*
X431800Y508000D03*
X571500Y266700D03*
X546100Y228600D03*
X508000Y190500D03*
X508000Y114300D03*
X431800Y215900D03*
X508000Y215900D03*
X777850Y100355D03*
X777875Y61595D03*
X807403Y64453D03*
X678180Y119380D03*
X812800Y215900D03*
X774700Y215900D03*
X342900Y190500D03*
X317500Y165100D03*
X480000Y350000D03*
X480000Y280000D03*
X825500Y330200D03*
X704533Y355283D03*
X937578Y345758D03*
X914400Y368300D03*
X839625Y368300D03*
X717550Y368935D03*
X840000Y420000D03*
X781685Y420370D03*
X840000Y460000D03*
X769045Y459045D03*
M02*
