M48
;GenerationSoftware,Autodesk,EAGLE,9.6.2*%
;CreationDate,2025-11-05T13:43:37Z*%
FMAT,2
ICI,OFF
METRIC,TZ,000.000
T4C0.350
T3C0.900
T2C1.016
T1C1.700
%
G90
M71
T1
X7310Y19050
X14310Y19050
T2
X96520Y60960
X88900Y60960
X91440Y60960
X93980Y60960
T3
X76748Y2604
X81748Y2604
T4
X23050Y16447
X2731Y45656
X4000Y45656
X5271Y45656
X6540Y45656
X7810Y45656
X3302Y44704
X4572Y44704
X5905Y44767
X7175Y44831
X59880Y53276
X58610Y58356
X96520Y27940
X3556Y51117
X4763Y51117
X5905Y51117
X7239Y51181
X8573Y51181
X10160Y51181
X9271Y50228
X7937Y50228
X6604Y50228
X5334Y50165
X4128Y50165
X2921Y50165
X50165Y37973
X50990Y37148
X51816Y36322
X52641Y35497
X53467Y34735
X49911Y36957
X50673Y36068
X51498Y35243
X52324Y34481
X53213Y33719
X52514Y40640
X53276Y39751
X54102Y38926
X54864Y38100
X56134Y36830
X53784Y40704
X54610Y39942
X55372Y39116
X56261Y38227
X95436Y38267
X96579Y38267
X97658Y38267
X96007Y39092
X97214Y39156
X98230Y39219
X95822Y34563
X96906Y34622
X97985Y34622
X96261Y33659
X97419Y33791
X98493Y33733
X96842Y32844
X98112Y32844
X23431Y46164
X24701Y46164
X25971Y46164
X27241Y46164
X28511Y46164
X24003Y45212
X25273Y45212
X26606Y45275
X27876Y45339
X28702Y50101
X27432Y50101
X26162Y50101
X24892Y50101
X23622Y50101
X28130Y51054
X26860Y51054
X25527Y50990
X24257Y50927
X60243Y1631
X60243Y2901
X60243Y4171
X60243Y5441
X60243Y6711
X61195Y2203
X61195Y3473
X61132Y4806
X61068Y6076
X50540Y2477
X51810Y2477
X53080Y2477
X54350Y2477
X55620Y2477
X51112Y1524
X52382Y1524
X53715Y1587
X54985Y1651
X96170Y25860
X43180Y48260
X85090Y21590
X57150Y26670
X54610Y22860
X50800Y19050
X50800Y11430
X43180Y21590
X50800Y21590
X77785Y10036
X77788Y6159
X80740Y6445
X67818Y11938
X81280Y21590
X77470Y21590
X34290Y19050
X31750Y16510
X48000Y35000
X48000Y28000
X43180Y50800
X70453Y35528
X93758Y34576
X91440Y36830
X83963Y36830
X71755Y36894
X84000Y42000
X78169Y42037
X84000Y46000
X76905Y45904
X90170Y22860
X67437Y21971
X70231Y29654
X59499Y26543
X52006Y28956
X44132Y7366
X37656Y28257
X82550Y33020
M30